<svg  width="100%" height="100%" overflow="visible" style="display: block;" viewBox="0 0 20 21" fill="none" xmlns="http://www.w3.org/2000/svg">
<path id="Icon" d="M7.83496 0.563054C9.18078 -0.187685 10.8192 -0.187685 12.165 0.563054L17.7207 3.66169C19.1279 4.44666 20 5.93223 20 7.54352V16.109C19.9998 18.5634 18.0101 20.5532 15.5557 20.5533H4.44434C1.98991 20.5532 0.000193253 18.5634 0 16.109V7.54352C0 5.93223 0.872137 4.44666 2.2793 3.66169L7.83496 0.563054ZM10 12.7427C9.23294 12.7427 8.61133 13.3653 8.61133 14.1324V15.7984C8.61133 16.5655 9.23294 17.1881 10 17.1881C10.7671 17.1881 11.3887 16.5655 11.3887 15.7984V14.1324C11.3887 13.3653 10.7671 12.7427 10 12.7427Z" fill="var(--fill-0, white)"/>
</svg>
