<svg  width="100%" height="100%" overflow="visible" style="display: block;" viewBox="0 0 18 18" fill="none" xmlns="http://www.w3.org/2000/svg">
<path id="Icon" d="M5.3935 12.6076C3.53357 10.744 2.1032 8.49664 1.20245 6.02261C0.706895 4.66999 1.16094 3.18418 2.17973 2.16539L2.8102 1.53578C2.9797 1.36594 3.18103 1.2312 3.40267 1.13926C3.62431 1.04732 3.8619 1 4.10185 1C4.3418 1 4.57939 1.04732 4.80103 1.13926C5.02267 1.2312 5.224 1.36594 5.3935 1.53578L6.86979 3.01208C7.03963 3.18158 7.17438 3.38291 7.26632 3.60455C7.35825 3.82618 7.40557 4.06378 7.40557 4.30373C7.40557 4.54368 7.35825 4.78127 7.26632 5.00291C7.17438 5.22455 7.03963 5.42588 6.86979 5.59538L6.50656 5.95861C6.36116 6.10398 6.24583 6.27656 6.16714 6.4665C6.08845 6.65644 6.04795 6.86002 6.04795 7.06562C6.04795 7.27121 6.08845 7.4748 6.16714 7.66474C6.24583 7.85468 6.36116 8.02726 6.50656 8.17262L9.82757 11.4945C9.97293 11.6399 10.1455 11.7552 10.3355 11.8339C10.5254 11.9126 10.729 11.9531 10.9346 11.9531C11.1402 11.9531 11.3438 11.9126 11.5337 11.8339C11.7236 11.7552 11.8962 11.6399 12.0416 11.4945L12.4057 11.1313C12.5752 10.9614 12.7765 10.8267 12.9981 10.7347C13.2198 10.6428 13.4574 10.5955 13.6973 10.5955C13.9373 10.5955 14.1749 10.6428 14.3965 10.7347C14.6181 10.8267 14.8195 10.9614 14.989 11.1313L16.4653 12.6076C16.6351 12.7771 16.7699 12.9784 16.8618 13.2C16.9537 13.4217 17.001 13.6593 17.001 13.8992C17.001 14.1392 16.9537 14.3768 16.8618 14.5984C16.7699 14.82 16.6351 15.0214 16.4653 15.1909L15.8357 15.8205C14.8169 16.8401 13.3311 17.2942 11.9784 16.7986C9.50442 15.8979 7.25704 14.4675 5.3935 12.6076Z" stroke="var(--stroke-0, white)" stroke-width="2" stroke-linejoin="round"/>
</svg>
