<svg  width="100%" height="100%" overflow="visible" style="display: block;" viewBox="0 0 14 14" fill="none" xmlns="http://www.w3.org/2000/svg">
<path id="Icon" d="M3.93447 9.19701C2.57768 7.83758 1.53425 6.19816 0.877169 4.3934C0.515668 3.40668 0.846886 2.32281 1.59008 1.57962L2.05 1.12033C2.17364 0.996431 2.32051 0.898137 2.48219 0.831071C2.64387 0.764005 2.81719 0.729483 2.99223 0.729483C3.16727 0.729483 3.34059 0.764005 3.50227 0.831071C3.66395 0.898137 3.81082 0.996431 3.93447 1.12033L5.0114 2.19726C5.1353 2.32091 5.23359 2.46777 5.30066 2.62946C5.36772 2.79114 5.40224 2.96446 5.40224 3.1395C5.40224 3.31454 5.36772 3.48786 5.30066 3.64954C5.23359 3.81122 5.1353 3.95809 5.0114 4.08173L4.74642 4.34671C4.64036 4.45275 4.55623 4.57864 4.49883 4.7172C4.44142 4.85576 4.41188 5.00427 4.41188 5.15425C4.41188 5.30423 4.44142 5.45274 4.49883 5.5913C4.55623 5.72986 4.64036 5.85575 4.74642 5.96179L7.16905 8.38505C7.27509 8.49111 7.40098 8.57525 7.53954 8.63265C7.6781 8.69005 7.82661 8.71959 7.97659 8.71959C8.12657 8.71959 8.27508 8.69005 8.41364 8.63265C8.5522 8.57525 8.67809 8.49111 8.78413 8.38505L9.04973 8.12007C9.17338 7.99618 9.32025 7.89788 9.48193 7.83082C9.64361 7.76375 9.81693 7.72923 9.99197 7.72923C10.167 7.72923 10.3403 7.76375 10.502 7.83082C10.6637 7.89788 10.8106 7.99618 10.9342 8.12007L12.0111 9.19701C12.135 9.32065 12.2333 9.46752 12.3004 9.6292C12.3675 9.79088 12.402 9.9642 12.402 10.1392C12.402 10.3143 12.3675 10.4876 12.3004 10.6493C12.2333 10.811 12.135 10.9578 12.0111 11.0815L11.5518 11.5408C10.8087 12.2846 9.72479 12.6158 8.73807 12.2543C6.93331 11.5972 5.29389 10.5538 3.93447 9.19701Z" stroke="var(--stroke-0, white)" stroke-width="1.45897" stroke-linejoin="round"/>
</svg>
