<svg  width="100%" height="100%" overflow="visible" style="display: block;" viewBox="0 0 17 20" fill="none" xmlns="http://www.w3.org/2000/svg">
<path id="Icon" d="M14.4004 10.7998C15.0369 10.7998 15.6476 11.0528 16.0977 11.5029C16.5475 11.9529 16.8007 12.563 16.8008 13.1992C16.8008 15.2272 15.8007 16.7599 14.2383 17.7559C12.6999 18.7363 10.6264 19.1992 8.40039 19.1992C6.1744 19.1992 4.1009 18.7363 2.5625 17.7559C1.0001 16.7587 0 15.2284 0 13.1992C4.80118e-05 12.8833 0.063334 12.5701 0.18457 12.2783C0.305814 11.9867 0.483243 11.7219 0.707031 11.499C0.93097 11.2761 1.19693 11.0995 1.48926 10.9795C1.78167 10.8595 2.09507 10.7984 2.41113 10.7998H14.4004ZM8.40039 0C9.67343 7.57758e-07 10.8947 0.5051 11.7949 1.40527C12.695 2.30544 13.2002 3.52681 13.2002 4.7998C13.2001 6.07259 12.6948 7.29327 11.7949 8.19336C10.8947 9.09353 9.67343 9.59961 8.40039 9.59961C7.12735 9.59961 5.90603 9.09353 5.00586 8.19336C4.10597 7.29327 3.60064 6.07259 3.60059 4.7998C3.60059 3.52681 4.10574 2.30544 5.00586 1.40527C5.90603 0.505099 7.12735 0 8.40039 0Z" fill="var(--fill-0, #0D0D0D)"/>
</svg>
