<svg  width="100%" height="100%" overflow="visible" style="display: block;" viewBox="0 0 7 8" fill="none" xmlns="http://www.w3.org/2000/svg">
<g id="Icon">
<path id="Union" d="M5.55762 5.875C5.99003 5.875 6.34082 6.22579 6.34082 6.6582C6.34077 7.09057 5.99 7.44141 5.55762 7.44141H1.41992C0.987696 7.44123 0.63775 7.09046 0.637695 6.6582C0.637695 6.2259 0.987662 5.87518 1.41992 5.875H5.55762ZM0.942383 2.54688C1.46256 2.54688 1.88456 2.96815 1.88477 3.48828C1.88477 4.00858 1.46268 4.43066 0.942383 4.43066C0.422202 4.43052 0.000976563 4.0085 0.000976563 3.48828C0.00117887 2.96824 0.422327 2.54702 0.942383 2.54688ZM3.48926 2.54688C4.00933 2.547 4.43046 2.96823 4.43066 3.48828C4.43066 4.00851 4.00946 4.43054 3.48926 4.43066C2.96896 4.43066 2.54688 4.00858 2.54688 3.48828C2.54708 2.96815 2.96908 2.54688 3.48926 2.54688ZM6.03516 2.54688C6.55532 2.54689 6.97734 2.96816 6.97754 3.48828C6.97754 4.00857 6.55544 4.43065 6.03516 4.43066C5.51485 4.43066 5.09277 4.00858 5.09277 3.48828C5.09298 2.96815 5.51498 2.54688 6.03516 2.54688ZM0.942383 0C1.46265 0 1.88471 0.42213 1.88477 0.942383C1.88477 1.46268 1.46268 1.88477 0.942383 1.88477C0.422133 1.8847 0 1.46265 0 0.942383C5.81313e-05 0.422168 0.422169 6.18178e-05 0.942383 0ZM3.48926 0C4.00945 0.000120353 4.43065 0.42217 4.43066 0.942383C4.43066 1.46261 4.00946 1.88465 3.48926 1.88477C2.96896 1.88477 2.54688 1.46268 2.54688 0.942383C2.54689 0.422096 2.96897 0 3.48926 0ZM6.03516 0C6.55543 1.67087e-05 6.97752 0.422106 6.97754 0.942383C6.97754 1.46267 6.55544 1.88475 6.03516 1.88477C5.51485 1.88477 5.09277 1.46268 5.09277 0.942383C5.09279 0.422096 5.51487 0 6.03516 0Z" fill="var(--fill-0, white)"/>
</g>
</svg>
