<svg  width="100%" height="100%" overflow="visible" style="display: block;" viewBox="0 0 16 14" fill="none" xmlns="http://www.w3.org/2000/svg">
<path id="Icon" d="M3.9082 0.746094C5.1951 0.607762 6.38446 1.39294 7.08008 2.30273L7.65918 3.06055L8.23926 2.30273C8.93044 1.39875 10.1201 0.620363 11.4189 0.746094C13.3981 0.937777 14.5898 2.57273 14.5898 4.80566C14.5898 6.81319 13.2773 8.85256 11.6289 10.4453C10.8184 11.2284 9.96015 11.8702 9.21289 12.3115C8.83911 12.5323 8.50208 12.6971 8.22168 12.8047C7.92939 12.9168 7.74473 12.9482 7.65918 12.9482C7.57342 12.9481 7.38877 12.9168 7.09668 12.8047C6.81634 12.6971 6.48011 12.5322 6.10645 12.3115C5.35918 11.8702 4.50097 11.2284 3.69043 10.4453C2.04201 8.85256 0.729492 6.81319 0.729492 4.80566C0.729502 3.69088 1.03561 2.72421 1.57129 2.02148C2.09876 1.3296 2.87498 0.857279 3.9082 0.746094Z" stroke="var(--stroke-0, white)" stroke-width="1.45897"/>
</svg>
