<svg  width="100%" height="100%" overflow="visible" style="display: block;" viewBox="0 0 20 20" fill="none" xmlns="http://www.w3.org/2000/svg">
<path id="Icon" d="M10 0C15.5228 0 20 4.47715 20 10C20 15.5228 15.5228 20 10 20C4.47715 20 0 15.5228 0 10C0 4.47715 4.47715 0 10 0ZM10 2C5.58172 2 2 5.58172 2 10C2 14.4183 5.58172 18 10 18C14.4183 18 18 14.4183 18 10C18 5.58172 14.4183 2 10 2ZM11.585 5.43457C12.2834 4.93562 13.2452 5.49128 13.1621 6.3457L12.6572 11.5352L8.41504 14.5664C7.71668 15.0653 6.75604 14.5105 6.83887 13.6562L7.34375 8.4668L11.585 5.43457ZM10 9.00098C9.44785 9.00113 9 9.44879 9 10.001C9.0003 10.5529 9.44803 11.0008 10 11.001C10.5519 11.0008 10.9997 10.5529 11 10.001C11 9.44882 10.5521 9.00118 10 9.00098Z" fill="var(--fill-0, #FCFAF7)" fill-opacity="0.5"/>
</svg>
