<svg  width="100%" height="100%" overflow="visible" style="display: block;" viewBox="0 0 18 16" fill="none" xmlns="http://www.w3.org/2000/svg">
<path id="Icon" d="M4.55957 0.870117C6.06094 0.708748 7.44822 1.62511 8.25977 2.68652L8.93652 3.57031L9.6123 2.68652C10.4187 1.63184 11.8069 0.724332 13.3223 0.871094C15.6312 1.09475 17.0214 3.00147 17.0215 5.60645C17.0215 7.94856 15.4896 10.3273 13.5664 12.1855C12.6207 13.0993 11.6199 13.8484 10.748 14.3633C10.3121 14.6207 9.91984 14.8129 9.59277 14.9385C9.25188 15.0693 9.03654 15.1064 8.93652 15.1064C8.83669 15.1064 8.6214 15.0694 8.28027 14.9385C7.95314 14.8129 7.5601 14.6208 7.12402 14.3633C6.2522 13.8484 5.25128 13.0992 4.30566 12.1855C2.38253 10.3273 0.850586 7.94854 0.850586 5.60645C0.850627 4.30586 1.20898 3.17822 1.83398 2.3584C2.44936 1.55134 3.35426 0.99982 4.55957 0.870117Z" stroke="var(--stroke-0, white)" stroke-width="1.70213"/>
</svg>
