<svg  width="100%" height="100%" overflow="visible" style="display: block;" viewBox="0 0 20 20" fill="none" xmlns="http://www.w3.org/2000/svg">
<path id="Icon" d="M10 0C15.5228 0 20 4.47715 20 10C20 15.5228 15.5228 20 10 20C4.47715 20 0 15.5228 0 10C0 4.47715 4.47715 0 10 0ZM7.02832 11C7.14381 13.094 7.61392 14.8987 8.25293 16.1768C9.05145 17.7738 9.78494 18 10 18C10.2151 18 10.9486 17.7738 11.7471 16.1768C12.3861 14.8987 12.8562 13.094 12.9717 11H7.02832ZM2.06445 11C2.40709 13.7468 4.14009 16.0608 6.53906 17.2139C5.70412 15.6107 5.14525 13.4341 5.02441 11H2.06445ZM14.9756 11C14.8547 13.4343 14.295 15.6107 13.46 17.2139C15.8593 16.061 17.5929 13.7471 17.9355 11H14.9756ZM6.53906 2.78516C4.13989 3.93812 2.40711 6.25301 2.06445 9H5.02441C5.14527 6.56552 5.7039 4.3884 6.53906 2.78516ZM10 2C9.78494 2 9.05145 2.22621 8.25293 3.82324C7.61392 5.1013 7.14381 6.90603 7.02832 9H12.9717C12.8562 6.90603 12.3861 5.1013 11.7471 3.82324C10.9486 2.22621 10.2151 2 10 2ZM13.46 2.78516C14.2952 4.38844 14.8547 6.56532 14.9756 9H17.9355C17.5929 6.25271 15.8595 3.93799 13.46 2.78516Z" fill="var(--fill-0, #222222)" fill-opacity="0.5"/>
</svg>
