<svg  width="100%" height="100%" overflow="visible" style="display: block;" viewBox="0 0 17 20" fill="none" xmlns="http://www.w3.org/2000/svg">
<path id="Icon" d="M14.4004 10.7998C15.0367 10.7999 15.6467 11.0531 16.0967 11.5029C16.5468 11.953 16.7998 12.5637 16.7998 13.2002L16.7881 13.5742C16.6725 15.417 15.7028 16.8221 14.2383 17.7559L13.9434 17.9336C12.4399 18.7922 10.487 19.2001 8.40039 19.2002L7.98438 19.1943C5.91696 19.1398 4.00365 18.6749 2.56152 17.7559C1.09715 16.821 0.127235 15.4177 0.0117188 13.5742L1.23283e-10 13.2002C-2.39717e-06 12.9634 0.0349574 12.7277 0.103516 12.502L0.183594 12.2793C0.274527 12.0605 0.397742 11.8561 0.547852 11.6738L0.707031 11.499C0.874972 11.3319 1.06685 11.1908 1.27539 11.0801L1.48926 10.9795C1.70848 10.8896 1.93977 10.8327 2.1748 10.8105L2.41113 10.7998H14.4004ZM2.40137 12.7998C2.34897 12.7997 2.29653 12.8102 2.24805 12.8301C2.19971 12.85 2.15526 12.8792 2.11816 12.916C2.08103 12.9531 2.05043 12.9975 2.03027 13.0459C2.01015 13.0945 2 13.1476 2 13.2002C2.00018 14.4624 2.57726 15.3926 3.63672 16.0693C4.75234 16.7803 6.41374 17.2001 8.40039 17.2002C10.3868 17.2001 12.0475 16.7802 13.1631 16.0693L13.3555 15.9404C14.2916 15.2773 14.7996 14.384 14.7998 13.2002C14.7998 13.0941 14.7576 12.992 14.6826 12.917C14.6077 12.8422 14.5062 12.7999 14.4004 12.7998H2.40137ZM8.40039 0C9.67336 5.25723e-05 10.8948 0.506122 11.7949 1.40625C12.6947 2.30632 13.2001 3.52711 13.2002 4.7998C13.2001 6.0727 12.695 7.29425 11.7949 8.19434L11.6221 8.3584C10.7416 9.1555 9.59368 9.59956 8.40039 9.59961C7.2071 9.59956 6.05915 9.15549 5.17871 8.3584L5.00684 8.19434C4.10675 7.29425 3.60069 6.0727 3.60059 4.7998C3.60063 3.6063 4.0454 2.45862 4.84277 1.57812L5.00684 1.40625C5.90696 0.506122 7.12742 5.17727e-05 8.40039 0ZM8.40039 2C7.65785 2.00005 6.94595 2.29526 6.4209 2.82031C5.8959 3.34536 5.60064 4.05731 5.60059 4.7998C5.60069 5.54227 5.89589 6.25526 6.4209 6.78027C6.9459 7.30496 7.65813 7.59956 8.40039 7.59961C9.14288 7.59956 9.85581 7.30527 10.3809 6.78027C10.9059 6.25526 11.2001 5.54227 11.2002 4.7998C11.2001 4.05755 10.9055 3.34531 10.3809 2.82031C9.8558 2.29526 9.14293 2.00005 8.40039 2Z" fill="var(--fill-0, #222222)" fill-opacity="0.5"/>
</svg>
