<svg  width="100%" height="100%" overflow="visible" style="display: block;" viewBox="0 0 9 9" fill="none" xmlns="http://www.w3.org/2000/svg">
<g id="Icon">
<path id="Union" d="M6.4834 6.85449C6.98785 6.85449 7.39741 7.26314 7.39746 7.76758C7.39746 8.27206 6.98788 8.68066 6.4834 8.68066H1.65625C1.15188 8.68053 0.743164 8.27198 0.743164 7.76758C0.743212 7.26322 1.15191 6.85463 1.65625 6.85449H6.4834ZM1.09961 2.9707C1.70648 2.97087 2.19824 3.4634 2.19824 4.07031C2.19806 4.67707 1.70637 5.16877 1.09961 5.16895C0.492701 5.16895 0.000179281 4.67718 0 4.07031C0 3.46329 0.49259 2.9707 1.09961 2.9707ZM4.07031 2.9707C4.67722 2.97083 5.16895 3.46337 5.16895 4.07031C5.16877 4.6771 4.67711 5.16882 4.07031 5.16895C3.4634 5.16895 2.97088 4.67718 2.9707 4.07031C2.9707 3.46329 3.46329 2.9707 4.07031 2.9707ZM7.04004 2.9707C7.64706 2.9707 8.13965 3.46329 8.13965 4.07031C8.13947 4.67718 7.64695 5.16895 7.04004 5.16895C6.43335 5.16869 5.94159 4.67702 5.94141 4.07031C5.94141 3.46345 6.43324 2.97096 7.04004 2.9707ZM1.09863 0C1.70565 0 2.19824 0.49259 2.19824 1.09961C2.19816 1.70656 1.7056 2.19824 1.09863 2.19824C0.491889 2.19798 8.34919e-05 1.7064 0 1.09961C0 0.492752 0.491837 0.000262184 1.09863 0ZM4.07031 0C4.67722 0.000126306 5.16895 0.492668 5.16895 1.09961C5.16881 1.70644 4.67714 2.19812 4.07031 2.19824C3.46337 2.19824 2.97083 1.70652 2.9707 1.09961C2.9707 0.49259 3.46329 0 4.07031 0ZM7.04004 0C7.64706 0 8.13965 0.49259 8.13965 1.09961C8.13952 1.70652 7.64698 2.19824 7.04004 2.19824C6.43332 2.19798 5.94154 1.70636 5.94141 1.09961C5.94141 0.49275 6.43324 0.000258245 7.04004 0Z" fill="var(--fill-0, white)"/>
</g>
</svg>
