<svg  width="100%" height="100%" overflow="visible" style="display: block;" viewBox="0 0 10 11" fill="none" xmlns="http://www.w3.org/2000/svg">
<g id="Icon">
<path id="Union" d="M7.61914 8.05371C8.21167 8.05396 8.69234 8.53437 8.69238 9.12695C8.69238 9.71957 8.2117 10.1999 7.61914 10.2002H1.94727C1.3545 10.2002 0.873047 9.71972 0.873047 9.12695C0.873086 8.53422 1.35452 8.05371 1.94727 8.05371H7.61914ZM1.29199 3.49121C2.00523 3.49121 2.58397 4.06899 2.58398 4.78223C2.58398 5.49547 2.00524 6.07324 1.29199 6.07324C0.578776 6.07321 0.000976562 5.49545 0.000976562 4.78223C0.000986114 4.06901 0.578782 3.49125 1.29199 3.49121ZM4.7832 3.49121C5.49623 3.49146 6.07421 4.06914 6.07422 4.78223C6.07422 5.49532 5.49624 6.07299 4.7832 6.07324C4.06996 6.07324 3.49121 5.49547 3.49121 4.78223C3.49122 4.06899 4.06996 3.49121 4.7832 3.49121ZM8.27344 3.49121C8.98648 3.49145 9.56444 4.06913 9.56445 4.78223C9.56445 5.49533 8.98648 6.07301 8.27344 6.07324C7.56019 6.07324 6.98145 5.49547 6.98145 4.78223C6.98145 4.06899 7.5602 3.49121 8.27344 3.49121ZM1.29199 0C2.00518 7.37698e-05 2.58301 0.57879 2.58301 1.29199C2.58295 2.00514 2.00514 2.58293 1.29199 2.58301C0.578784 2.58301 6.25526e-05 2.00519 0 1.29199C0 0.578745 0.578745 0 1.29199 0ZM4.7832 0C5.49624 0.000253224 6.07422 0.578901 6.07422 1.29199C6.0741 2.00498 5.49616 2.58275 4.7832 2.58301C4.07003 2.58301 3.49133 2.00514 3.49121 1.29199C3.49121 0.578745 4.06996 0 4.7832 0ZM8.27344 0C8.98648 0.000236486 9.56445 0.578891 9.56445 1.29199C9.56434 2.00499 8.98641 2.58277 8.27344 2.58301C7.56026 2.58301 6.98156 2.00514 6.98145 1.29199C6.98145 0.578745 7.56019 0 8.27344 0Z" fill="var(--fill-0, white)"/>
</g>
</svg>
