<svg  width="100%" height="100%" overflow="visible" style="display: block;" viewBox="0 0 21 19" fill="none" xmlns="http://www.w3.org/2000/svg">
<path id="Icon" d="M5.35742 1.02246C7.12156 0.832812 8.75247 1.90907 9.70605 3.15625L10.5 4.19531L11.2939 3.15625C12.2414 1.91705 13.8729 0.851123 15.6533 1.02344C18.3665 1.2862 20 3.52688 20 6.58789C20 9.33979 18.201 12.135 15.9414 14.3184C14.8302 15.392 13.6534 16.2719 12.6289 16.877C12.1167 17.1795 11.6558 17.4052 11.2715 17.5527C10.8705 17.7067 10.6173 17.75 10.5 17.75C10.3827 17.75 10.1295 17.7067 9.72852 17.5527C9.34421 17.4052 8.88333 17.1795 8.37109 16.877C7.34662 16.2719 6.1698 15.392 5.05859 14.3184C2.79898 12.135 1.00002 9.33979 1 6.58789C1 5.05972 1.41999 3.73481 2.1543 2.77148C2.87737 1.82303 3.94104 1.17488 5.35742 1.02246Z" stroke="var(--stroke-0, white)" stroke-width="2"/>
</svg>
