<svg  width="100%" height="100%" overflow="visible" style="display: block;" viewBox="0 0 16 16" fill="none" xmlns="http://www.w3.org/2000/svg">
<path id="Icon" d="M4.59021 10.7298C3.00729 9.14384 1.78996 7.23118 1.02336 5.12563C0.601612 3.97446 0.988033 2.70994 1.85509 1.84289L2.39166 1.30705C2.53592 1.1625 2.70726 1.04783 2.89589 0.969583C3.08452 0.891339 3.28672 0.851064 3.49094 0.851064C3.69515 0.851064 3.89736 0.891339 4.08598 0.969583C4.27461 1.04783 4.44596 1.1625 4.59021 1.30705L5.84663 2.56347C5.99118 2.70772 6.10585 2.87907 6.1841 3.0677C6.26234 3.25633 6.30262 3.45853 6.30262 3.66275C6.30262 3.86696 6.26234 4.06917 6.1841 4.2578C6.10585 4.44642 5.99118 4.61777 5.84663 4.76202L5.5375 5.07116C5.41376 5.19487 5.3156 5.34175 5.24863 5.5034C5.18166 5.66506 5.14719 5.83832 5.14719 6.01329C5.14719 6.18827 5.18166 6.36153 5.24863 6.52318C5.3156 6.68484 5.41376 6.83171 5.5375 6.95542L8.36389 9.78256C8.4876 9.9063 8.63448 10.0045 8.79613 10.0714C8.95778 10.1384 9.13104 10.1729 9.30602 10.1729C9.48099 10.1729 9.65426 10.1384 9.81591 10.0714C9.97756 10.0045 10.1244 9.9063 10.2482 9.78256L10.558 9.47342C10.7023 9.32887 10.8736 9.2142 11.0623 9.13595C11.2509 9.05771 11.4531 9.01743 11.6573 9.01743C11.8615 9.01743 12.0637 9.05771 12.2523 9.13595C12.441 9.2142 12.6123 9.32887 12.7566 9.47342L14.013 10.7298C14.1575 10.8741 14.2722 11.0454 14.3505 11.2341C14.4287 11.4227 14.469 11.6249 14.469 11.8291C14.469 12.0333 14.4287 12.2355 14.3505 12.4242C14.2722 12.6128 14.1575 12.7841 14.013 12.9284L13.4772 13.4642C12.6101 14.332 11.3456 14.7184 10.1944 14.2967C8.08887 13.5301 6.17621 12.3128 4.59021 10.7298Z" stroke="var(--stroke-0, white)" stroke-width="1.70213" stroke-linejoin="round"/>
</svg>
