<svg  width="100%" height="100%" overflow="visible" style="display: block;" viewBox="0 0 20 20" fill="none" xmlns="http://www.w3.org/2000/svg">
<path id="Icon" d="M19.71 12.3086C18.7352 16.2812 15.3886 19.3179 11.2559 19.8359C13.2509 18.6694 15.0669 16.3931 16.1934 13.4707C16.6738 13.3948 17.1375 13.2951 17.5811 13.1719C18.3415 12.9605 19.0615 12.6725 19.71 12.3086ZM4.71094 11.2422C6.00175 11.9706 7.46703 12.573 9.0498 12.9971C10.726 13.4462 12.388 13.6558 13.9463 13.6465C13.2498 15.1445 12.3621 16.3704 11.416 17.2383C9.9774 18.5577 8.64835 18.8731 7.6709 18.6113C6.69336 18.3494 5.69947 17.4112 5.11328 15.5488C4.73333 14.3413 4.57547 12.8608 4.71094 11.2422ZM0.334961 7.3457C0.684064 7.88458 1.10146 8.4012 1.57422 8.88281C1.95718 9.27292 2.38217 9.64723 2.84277 10.0049C2.38338 13.0599 2.82153 15.8981 3.9541 17.8828C1.55166 16.0564 0 13.1687 0 9.91797C0 9.02857 0.11707 8.16654 0.334961 7.3457ZM8.58398 2.59766C10.0226 1.2782 11.3517 0.962821 12.3291 1.22461C13.3066 1.48654 14.3005 2.42471 14.8867 4.28711C15.4642 6.12255 15.5329 8.58896 14.8301 11.2119C14.7932 11.3495 14.7529 11.4854 14.7129 11.6201C13.1458 11.7175 11.3845 11.5523 9.56738 11.0654C7.84823 10.6048 6.31526 9.92149 5.04688 9.11426C5.08487 8.95153 5.12596 8.78809 5.16992 8.62402C5.87281 6.00081 7.16598 3.89847 8.58398 2.59766ZM16.0449 1.95215C18.3598 3.7115 19.8824 6.45619 19.9912 9.56152C19.3781 10.2775 18.3936 10.8705 17.0459 11.2451C16.9884 11.2611 16.9296 11.274 16.8711 11.2891C17.7361 7.69158 17.3566 4.24977 16.0449 1.95215ZM8.74316 0C6.43314 1.35102 4.36332 4.19095 3.32617 7.79688C3.21399 7.6927 3.10502 7.5884 3.00098 7.48242C2.13347 6.59862 1.59712 5.70839 1.36523 4.87305C2.89998 2.25187 5.59352 0.395108 8.74316 0Z" fill="var(--fill-0, #0D0D0D)"/>
</svg>
